<svg width="28" height="28" viewBox="0 0 28 28" fill="none" xmlns="http://www.w3.org/2000/svg">
<rect width="28" height="28" rx="14" fill="#FF383C"/>
<path d="M8.60627 10.7273V18H7.50542V11.8281H7.4628L5.72275 12.9645V11.9134L7.53738 10.7273H8.60627ZM13.031 18.0994C12.522 18.0994 12.0722 18.0118 11.6816 17.8366C11.2933 17.6615 10.9891 17.42 10.7689 17.1122C10.5487 16.8045 10.4398 16.4541 10.4422 16.0611C10.4398 15.7533 10.5026 15.4704 10.6304 15.2124C10.7606 14.9519 10.937 14.7353 11.1595 14.5625C11.3821 14.3873 11.6307 14.276 11.9053 14.2287V14.1861C11.5431 14.0985 11.253 13.9044 11.0352 13.6037C10.8174 13.303 10.7097 12.9574 10.7121 12.5668C10.7097 12.1951 10.808 11.8636 11.0068 11.5724C11.2081 11.2789 11.4839 11.0481 11.8343 10.88C12.1846 10.7119 12.5835 10.6278 13.031 10.6278C13.4737 10.6278 13.8691 10.7131 14.2171 10.8835C14.5674 11.0516 14.8432 11.2824 15.0445 11.576C15.2457 11.8672 15.3475 12.1974 15.3499 12.5668C15.3475 12.9574 15.2362 13.303 15.0161 13.6037C14.7959 13.9044 14.5094 14.0985 14.1567 14.1861V14.2287C14.4289 14.276 14.674 14.3873 14.8918 14.5625C15.1119 14.7353 15.2871 14.9519 15.4173 15.2124C15.5499 15.4704 15.6174 15.7533 15.6198 16.0611C15.6174 16.4541 15.5061 16.8045 15.286 17.1122C15.0658 17.42 14.7604 17.6615 14.3698 17.8366C13.9815 18.0118 13.5352 18.0994 13.031 18.0994ZM13.031 17.201C13.3316 17.201 13.5921 17.1513 13.8122 17.0518C14.0324 16.95 14.2029 16.8092 14.3236 16.6293C14.4443 16.447 14.5059 16.2339 14.5083 15.9901C14.5059 15.7367 14.4396 15.513 14.3094 15.3189C14.1816 15.1248 14.0075 14.9721 13.7874 14.8608C13.5672 14.7495 13.3151 14.6939 13.031 14.6939C12.7445 14.6939 12.49 14.7495 12.2675 14.8608C12.045 14.9721 11.8698 15.1248 11.7419 15.3189C11.6141 15.513 11.5513 15.7367 11.5537 15.9901C11.5513 16.2339 11.6093 16.447 11.7277 16.6293C11.8485 16.8092 12.0201 16.95 12.2426 17.0518C12.4652 17.1513 12.728 17.201 13.031 17.201ZM13.031 13.8168C13.2725 13.8168 13.4867 13.7682 13.6737 13.6712C13.8608 13.5741 14.0075 13.4392 14.1141 13.2663C14.223 13.0935 14.2786 12.8911 14.281 12.6591C14.2786 12.4318 14.2242 12.233 14.1176 12.0625C14.0135 11.892 13.8679 11.7607 13.6808 11.6683C13.4938 11.5736 13.2772 11.5263 13.031 11.5263C12.78 11.5263 12.5599 11.5736 12.3705 11.6683C12.1834 11.7607 12.0378 11.892 11.9337 12.0625C11.8295 12.233 11.7786 12.4318 11.781 12.6591C11.7786 12.8911 11.8307 13.0935 11.9372 13.2663C12.0438 13.4392 12.1905 13.5741 12.3776 13.6712C12.567 13.7682 12.7848 13.8168 13.031 13.8168ZM19.0439 16.7784V11.9773H19.9992V16.7784H19.0439ZM17.1228 14.8537V13.902H21.9239V14.8537H17.1228Z" fill="white"/>
</svg>
