<svg width="18" height="18" viewBox="0 0 18 18" fill="none" xmlns="http://www.w3.org/2000/svg">
<rect width="17.14" height="17.14" rx="8.57" fill="#C2D5F3"/>
<rect x="3.80957" y="3.81006" width="9.52" height="9.52" rx="2" fill="#5E92DF"/>
<path d="M6.92442 10.017C6.92442 10.126 7.01278 10.2144 7.12178 10.2144C7.23079 10.2144 7.31915 10.126 7.31915 10.017H7.12178H6.92442ZM7.31915 9.22755C7.31915 9.11854 7.23079 9.03018 7.12178 9.03018C7.01278 9.03018 6.92442 9.11854 6.92442 9.22755H7.12178H7.31915ZM8.2402 10.017C8.2402 10.126 8.32857 10.2144 8.43757 10.2144C8.54658 10.2144 8.63494 10.126 8.63494 10.017H8.43757H8.2402ZM8.63494 7.6486C8.63494 7.5396 8.54658 7.45123 8.43757 7.45123C8.32857 7.45123 8.2402 7.5396 8.2402 7.6486H8.43757H8.63494ZM9.55599 10.017C9.55599 10.126 9.64436 10.2144 9.75336 10.2144C9.86236 10.2144 9.95073 10.126 9.95073 10.017H9.75336H9.55599ZM9.95073 8.96439C9.95073 8.85538 9.86236 8.76702 9.75336 8.76702C9.64436 8.76702 9.55599 8.85538 9.55599 8.96439H9.75336H9.95073ZM6.43545 10.7037L6.29589 10.8433H6.29589L6.43545 10.7037ZM10.7032 10.7037L10.8428 10.8433V10.8433L10.7032 10.7037ZM8.56933 6.06983V6.2672H8.56934L8.56933 6.06983ZM6.43545 6.43595L6.29589 6.29639V6.29639L6.43545 6.43595ZM11.2655 8.30407C11.2641 8.19507 11.1746 8.10788 11.0656 8.10931C10.9566 8.11074 10.8694 8.20026 10.8708 8.30926L11.0682 8.30666L11.2655 8.30407ZM8.8325 6.26719C8.9415 6.26719 9.02986 6.17882 9.02986 6.06982C9.02985 5.96081 8.94149 5.87245 8.83248 5.87246L8.83249 6.06982L8.8325 6.26719ZM7.12178 10.017H7.31915V9.22755H7.12178H6.92442V10.017H7.12178ZM8.43757 10.017H8.63494L8.63494 7.6486H8.43757H8.2402L8.2402 10.017H8.43757ZM9.75336 10.017H9.95073V8.96439H9.75336H9.55599V10.017H9.75336ZM11.0693 6.8593H10.8719C10.8719 7.18631 10.6068 7.4514 10.2798 7.4514V7.64877V7.84614C10.8248 7.84614 11.2667 7.40431 11.2667 6.8593H11.0693ZM10.2798 7.64877V7.4514C9.95282 7.4514 9.68772 7.18631 9.68772 6.8593H9.49036H9.29299C9.29299 7.40431 9.73481 7.84614 10.2798 7.84614V7.64877ZM9.49036 6.8593H9.68772C9.68772 6.53229 9.95282 6.26719 10.2798 6.26719V6.06982V5.87246C9.73481 5.87246 9.29299 6.31428 9.29299 6.8593H9.49036ZM10.2798 6.06982V6.26719C10.6068 6.26719 10.8719 6.53229 10.8719 6.8593H11.0693H11.2667C11.2667 6.31428 10.8248 5.87246 10.2798 5.87246V6.06982ZM8.56933 11.0698V10.8725C7.9745 10.8725 7.54823 10.872 7.22404 10.8285C6.90554 10.7856 6.71529 10.7044 6.57501 10.5641L6.43545 10.7037L6.29589 10.8433C6.52173 11.0691 6.80917 11.171 7.17145 11.2197C7.52805 11.2676 7.98566 11.2672 8.56933 11.2672V11.0698ZM6.06934 8.56983H5.87197C5.87197 9.1535 5.87155 9.61111 5.91949 9.96771C5.9682 10.33 6.07005 10.6174 6.29589 10.8433L6.43545 10.7037L6.57501 10.5641C6.43474 10.4239 6.35353 10.2336 6.31071 9.91512C6.26712 9.59093 6.2667 9.16466 6.2667 8.56983H6.06934ZM11.0693 8.56983H10.872C10.872 9.16466 10.8715 9.59093 10.828 9.91512C10.7851 10.2336 10.7039 10.4239 10.5637 10.5641L10.7032 10.7037L10.8428 10.8433C11.0686 10.6174 11.1705 10.33 11.2192 9.96771C11.2671 9.61111 11.2667 9.1535 11.2667 8.56983H11.0693ZM8.56933 11.0698V11.2672C9.15301 11.2672 9.61062 11.2676 9.96722 11.2197C10.3295 11.171 10.6169 11.0691 10.8428 10.8433L10.7032 10.7037L10.5637 10.5641C10.4234 10.7044 10.2331 10.7856 9.91462 10.8285C9.59044 10.872 9.16417 10.8725 8.56933 10.8725V11.0698ZM8.56933 6.06983V5.87246C7.98566 5.87246 7.52805 5.87205 7.17145 5.91999C6.80917 5.9687 6.52173 6.07055 6.29589 6.29639L6.43545 6.43595L6.57501 6.57551C6.71529 6.43523 6.90554 6.35403 7.22404 6.3112C7.54823 6.26762 7.9745 6.2672 8.56933 6.2672V6.06983ZM6.06934 8.56983H6.2667C6.2667 7.97499 6.26712 7.54872 6.31071 7.22454C6.35353 6.90603 6.43474 6.71578 6.57501 6.57551L6.43545 6.43595L6.29589 6.29639C6.07005 6.52223 5.9682 6.80966 5.91949 7.17194C5.87155 7.52854 5.87197 7.98615 5.87197 8.56983H6.06934ZM11.0693 8.56983H11.2667C11.2667 8.48248 11.2664 8.41625 11.2661 8.37175C11.266 8.3495 11.2658 8.33269 11.2657 8.32138C11.2656 8.31573 11.2656 8.31145 11.2656 8.30856C11.2655 8.30712 11.2655 8.30602 11.2655 8.30527C11.2655 8.3049 11.2655 8.30461 11.2655 8.30441C11.2655 8.30431 11.2655 8.30423 11.2655 8.30417C11.2655 8.30414 11.2655 8.30412 11.2655 8.3041C11.2655 8.3041 11.2655 8.30409 11.2655 8.30408C11.2655 8.30408 11.2655 8.30408 11.2655 8.30407C11.2655 8.30407 11.2655 8.30407 11.0682 8.30666C10.8708 8.30926 10.8708 8.30926 10.8708 8.30925C10.8708 8.30925 10.8708 8.30925 10.8708 8.30925C10.8708 8.30925 10.8708 8.30925 10.8708 8.30925C10.8708 8.30926 10.8708 8.30927 10.8708 8.30928C10.8708 8.30931 10.8708 8.30937 10.8708 8.30944C10.8708 8.30959 10.8708 8.30982 10.8708 8.31015C10.8708 8.31079 10.8708 8.31178 10.8708 8.31312C10.8709 8.3158 10.8709 8.31986 10.871 8.3253C10.8711 8.33618 10.8712 8.35256 10.8714 8.37438C10.8717 8.41801 10.872 8.48337 10.872 8.56983H11.0693ZM8.56933 6.06983L8.56934 6.2672L8.8325 6.26719L8.83249 6.06982L8.83248 5.87246L8.56933 5.87246L8.56933 6.06983Z" fill="white"/>
</svg>
