<svg width="18" height="18" viewBox="0 0 18 18" fill="none" xmlns="http://www.w3.org/2000/svg">
<rect width="17.1354" height="17.1354" rx="8.56772" fill="#FFF7F1"/>
<path d="M10.5628 3.80811H6.57406C4.84148 3.80811 3.80859 4.84099 3.80859 6.57358V10.5576C3.80859 12.2949 4.84148 13.3278 6.57406 13.3278H10.5581C12.2906 13.3278 13.3235 12.2949 13.3235 10.5623V6.57358C13.3283 4.84099 12.2954 3.80811 10.5628 3.80811ZM11.3529 9.56752C11.3339 9.61036 11.3101 9.64843 11.2768 9.68175L9.8298 11.1287C9.7584 11.2001 9.66796 11.2335 9.57753 11.2335C9.48709 11.2335 9.39665 11.2001 9.32525 11.1287C9.25886 11.0616 9.22163 10.9709 9.22163 10.8765C9.22163 10.782 9.25886 10.6914 9.32525 10.6242L10.163 9.78647H6.11712C5.92196 9.78647 5.76013 9.62464 5.76013 9.42948C5.76013 9.23433 5.92196 9.07249 6.11712 9.07249H11.0245C11.0721 9.07249 11.115 9.08201 11.1626 9.10105C11.2482 9.13913 11.3196 9.20577 11.3577 9.29621C11.3863 9.38188 11.3863 9.48184 11.3529 9.56752ZM11.0198 8.05865H6.11712C6.06952 8.05865 6.02668 8.04913 5.97908 8.03009C5.89143 7.99245 5.82157 7.92259 5.78393 7.83493C5.7651 7.79219 5.75538 7.74599 5.75538 7.69928C5.75538 7.65257 5.7651 7.60637 5.78393 7.56362C5.80297 7.52078 5.82677 7.48271 5.86009 7.44939L7.30708 6.00239C7.44512 5.86436 7.67359 5.86436 7.81162 6.00239C7.94966 6.14043 7.94966 6.3689 7.81162 6.50694L6.97865 7.34467H11.0245C11.2197 7.34467 11.3815 7.5065 11.3815 7.70166C11.3815 7.89681 11.2197 8.05865 11.0198 8.05865Z" fill="#EBA775"/>
</svg>
