<svg width="18" height="18" viewBox="0 0 18 18" fill="none" xmlns="http://www.w3.org/2000/svg">
<rect width="17.14" height="17.14" rx="8.57" fill="#BFBFBF"/>
<rect x="3.80957" y="3.81006" width="9.52" height="9.52" rx="2" fill="#8C8C8C"/>
<path d="M6.7796 10.8809L6.91247 10.7204L6.91247 10.7204L6.7796 10.8809ZM10.3599 10.8809L10.2271 10.7204L10.2271 10.7204L10.3599 10.8809ZM9.99901 11.0678L9.9732 11.2746H9.9732L9.99901 11.0678ZM9.84858 10.6684C9.78032 10.5758 9.6499 10.5561 9.55728 10.6243C9.46466 10.6926 9.44491 10.823 9.51318 10.9157L9.68088 10.792L9.84858 10.6684ZM7.14053 11.0678L7.16634 11.2746V11.2746L7.14053 11.0678ZM7.62636 10.9157C7.69463 10.823 7.67488 10.6926 7.58226 10.6243C7.48964 10.5561 7.35922 10.5758 7.29095 10.6684L7.45866 10.792L7.62636 10.9157ZM8.8252 8.02123C8.75234 8.11028 8.76546 8.24154 8.85451 8.3144C8.94356 8.38726 9.07482 8.37413 9.14768 8.28508L8.98644 8.15316L8.8252 8.02123ZM10.3977 6.7573C10.4705 6.66825 10.4574 6.537 10.3684 6.46414C10.2793 6.39128 10.1481 6.4044 10.0752 6.49346L10.2364 6.62538L10.3977 6.7573ZM5.79199 8.79614H6.00033C6.00033 7.40915 7.14702 6.27816 8.56977 6.27816V6.06982V5.86149C6.92428 5.86149 5.58366 7.17172 5.58366 8.79614H5.79199ZM8.56977 6.06982V6.27816C9.99252 6.27816 11.1392 7.40915 11.1392 8.79614H11.3475H11.5559C11.5559 7.17172 10.2153 5.86149 8.56977 5.86149V6.06982ZM6.7796 10.8809L6.91247 10.7204C6.35362 10.2577 6.00033 9.56697 6.00033 8.79614H5.79199H5.58366C5.58366 9.69787 5.99764 10.5039 6.64673 11.0413L6.7796 10.8809ZM11.3475 8.79614H11.1392C11.1392 9.56697 10.7859 10.2577 10.2271 10.7204L10.3599 10.8809L10.4928 11.0413C11.1419 10.5039 11.5559 9.69787 11.5559 8.79614H11.3475ZM10.3599 10.8809L10.2271 10.7204C10.1405 10.7921 10.0951 10.8288 10.0588 10.8497C10.0335 10.8642 10.0291 10.8616 10.0248 10.8611L9.99901 11.0678L9.9732 11.2746C10.0864 11.2887 10.1812 11.2599 10.2665 11.2109C10.3407 11.1682 10.4171 11.104 10.4928 11.0413L10.3599 10.8809ZM9.68088 10.792L9.51318 10.9157C9.58157 11.0084 9.64401 11.0916 9.70903 11.151C9.78591 11.2211 9.86919 11.2616 9.9732 11.2746L9.99901 11.0678L10.0248 10.8611C10.0137 10.8597 10.0099 10.8579 10.0088 10.8574C10.0072 10.8567 10.0016 10.8538 9.9899 10.8432C9.9609 10.8167 9.92298 10.7694 9.84858 10.6684L9.68088 10.792ZM6.7796 10.8809L6.64673 11.0413C6.72245 11.104 6.79886 11.1682 6.87307 11.2109C6.9583 11.2599 7.05317 11.2887 7.16634 11.2746L7.14053 11.0678L7.11471 10.8611C7.11048 10.8616 7.10605 10.8642 7.08076 10.8497C7.04444 10.8288 6.99909 10.7921 6.91247 10.7204L6.7796 10.8809ZM7.45866 10.792L7.29095 10.6684C7.21656 10.7694 7.17864 10.8167 7.14964 10.8432C7.13799 10.8538 7.13229 10.8567 7.13077 10.8574C7.12962 10.8579 7.12586 10.8597 7.11471 10.8611L7.14053 11.0678L7.16634 11.2746C7.27035 11.2616 7.35363 11.2211 7.43051 11.151C7.49553 11.0916 7.55797 11.0084 7.62636 10.9157L7.45866 10.792ZM8.98644 8.15316L9.14768 8.28508L10.3977 6.7573L10.2364 6.62538L10.0752 6.49346L8.8252 8.02123L8.98644 8.15316ZM8.98644 8.56982H8.7781C8.7781 8.68488 8.68483 8.77816 8.56977 8.77816V8.98649V9.19482C8.91495 9.19482 9.19477 8.915 9.19477 8.56982H8.98644ZM8.56977 8.98649V8.77816C8.45471 8.77816 8.36144 8.68488 8.36144 8.56982H8.1531H7.94477C7.94477 8.915 8.22459 9.19482 8.56977 9.19482V8.98649ZM8.1531 8.56982H8.36144C8.36144 8.45476 8.45471 8.36149 8.56977 8.36149V8.15316V7.94482C8.22459 7.94482 7.94477 8.22465 7.94477 8.56982H8.1531ZM8.56977 8.15316V8.36149C8.68483 8.36149 8.7781 8.45476 8.7781 8.56982H8.98644H9.19477C9.19477 8.22465 8.91495 7.94482 8.56977 7.94482V8.15316Z" fill="white"/>
</svg>
