<svg width="105" height="105" viewBox="0 0 105 105" fill="none" xmlns="http://www.w3.org/2000/svg">
<rect x="4.56012" y="4.56012" width="95.52" height="95.52" rx="47.76" fill="#2E71D5"/>
<rect x="4.56012" y="4.56012" width="95.52" height="95.52" rx="47.76" stroke="#C2D5F3" stroke-width="9.12"/>
<path d="M52.3203 24.3203C59.7464 24.3203 66.8683 27.2703 72.1193 32.5213C77.3703 37.7723 80.3203 44.8943 80.3203 52.3203C80.3203 59.7464 77.3703 66.8683 72.1193 72.1193C66.8683 77.3703 59.7464 80.3203 52.3203 80.3203C44.8943 80.3203 37.7723 77.3703 32.5213 72.1193C27.2703 66.8683 24.3203 59.7464 24.3203 52.3203C24.3203 44.8943 27.2703 37.7723 32.5213 32.5213C37.7723 27.2703 44.8943 24.3203 52.3203 24.3203ZM48.8323 57.8443L42.6123 51.6203C42.3893 51.3973 42.1246 51.2204 41.8333 51.0998C41.5419 50.9791 41.2297 50.917 40.9143 50.917C40.599 50.917 40.2867 50.9791 39.9954 51.0998C39.704 51.2204 39.4393 51.3973 39.2163 51.6203C38.766 52.0707 38.513 52.6814 38.513 53.3183C38.513 53.9552 38.766 54.566 39.2163 55.0163L47.1363 62.9363C47.3587 63.1604 47.6232 63.3383 47.9146 63.4597C48.206 63.5811 48.5186 63.6436 48.8343 63.6436C49.15 63.6436 49.4626 63.5811 49.754 63.4597C50.0455 63.3383 50.31 63.1604 50.5323 62.9363L66.9323 46.5323C67.1583 46.3103 67.338 46.0457 67.4612 45.7538C67.5844 45.4619 67.6486 45.1485 67.6501 44.8317C67.6516 44.5149 67.5903 44.2009 67.4698 43.9079C67.3493 43.6149 67.1721 43.3486 66.9482 43.1245C66.7243 42.9003 66.4582 42.7227 66.1653 42.6019C65.8725 42.4811 65.5586 42.4195 65.2418 42.4206C64.925 42.4217 64.6115 42.4855 64.3195 42.6083C64.0275 42.7312 63.7626 42.9106 63.5403 43.1363L48.8323 57.8443Z" fill="white"/>
</svg>
