<svg width="105" height="105" viewBox="0 0 105 105" fill="none" xmlns="http://www.w3.org/2000/svg">
<rect x="4.56012" y="4.56012" width="95.1056" height="95.2" rx="47.5528" fill="#FF0000"/>
<rect x="4.56012" y="4.56012" width="95.1056" height="95.2" rx="47.5528" stroke="#F4E9EE" stroke-width="9.12"/>
<path fill-rule="evenodd" clip-rule="evenodd" d="M36.3853 25.1883C46.8385 24.031 57.3875 24.031 67.8407 25.1883C73.6284 25.8371 78.2977 30.3949 78.9768 36.2028C80.2155 46.8051 80.2155 57.5155 78.9768 68.1178C78.2977 73.9257 73.6284 78.4836 67.8407 79.1323C57.3875 80.2897 46.8385 80.2897 36.3853 79.1323C30.5976 78.4836 25.9283 73.9257 25.2491 68.1178C24.0107 57.5166 24.0107 46.8074 25.2491 36.2062C25.5926 33.3846 26.8789 30.7616 28.8996 28.7625C30.9202 26.7633 33.5567 25.5051 36.3819 25.1917M40.1863 40.2336C40.6614 39.7591 41.3055 39.4925 41.977 39.4925C42.6485 39.4925 43.2925 39.7591 43.7677 40.2336L52.113 48.5789L60.4583 40.2336C60.6903 39.9846 60.9701 39.7849 61.2809 39.6464C61.5917 39.5079 61.9273 39.4335 62.2675 39.4275C62.6078 39.4215 62.9457 39.484 63.2613 39.6115C63.5768 39.7389 63.8634 39.9286 64.104 40.1693C64.3447 40.4099 64.5344 40.6965 64.6618 41.012C64.7893 41.3276 64.8518 41.6655 64.8458 42.0058C64.8398 42.346 64.7654 42.6816 64.6269 42.9924C64.4884 43.3032 64.2887 43.583 64.0397 43.815L55.6944 52.1603L64.0397 60.5056C64.4873 60.986 64.731 61.6213 64.7194 62.2778C64.7078 62.9343 64.4419 63.5607 63.9776 64.0249C63.5133 64.4892 62.887 64.7552 62.2305 64.7667C61.574 64.7783 60.9387 64.5346 60.4583 64.087L52.113 55.7417L43.7677 64.087C43.5357 64.336 43.2559 64.5357 42.9451 64.6742C42.6342 64.8127 42.2987 64.8872 41.9585 64.8932C41.6182 64.8992 41.2803 64.8366 40.9647 64.7091C40.6492 64.5817 40.3626 64.392 40.1219 64.1514C39.8813 63.9107 39.6916 63.6241 39.5642 63.3086C39.4367 62.9931 39.3741 62.6551 39.3801 62.3148C39.3861 61.9746 39.4606 61.6391 39.5991 61.3282C39.7376 61.0174 39.9373 60.7376 40.1863 60.5056L48.5316 52.1603L40.1863 43.815C39.7117 43.3399 39.4452 42.6958 39.4452 42.0243C39.4452 41.3528 39.7117 40.7087 40.1863 40.2336Z" fill="white"/>
</svg>
