<svg width="39" height="39" viewBox="0 0 39 39" fill="none" xmlns="http://www.w3.org/2000/svg">
<rect x="38.6355" y="38.6356" width="38.6356" height="38.6356" rx="19.3178" transform="rotate(180 38.6355 38.6356)" fill="#FF0000" fill-opacity="0.15"/>
<path d="M17.4446 17.2025C17.4446 17.782 17.6056 17.8679 17.9705 17.9966L18.5178 18.1898V16.3654H18.1958C17.788 16.3654 17.4446 16.741 17.4446 17.2025ZM20.1276 22.268H20.4496C20.8681 22.268 21.2008 21.8924 21.2008 21.4309C21.2008 20.8514 21.0398 20.7655 20.6749 20.6367L20.1276 20.4436V22.268Z" fill="#FF0000"/>
<path d="M27.4557 12.3184L25.2556 14.5184C25.0946 14.6794 24.8907 14.7546 24.6868 14.7546C24.4829 14.7546 24.279 14.6794 24.118 14.5184C23.9683 14.367 23.8843 14.1626 23.8843 13.9496C23.8843 13.7367 23.9683 13.5323 24.118 13.3808L26.3181 11.1808C24.4292 9.57095 21.993 8.58359 19.3207 8.58359C13.3966 8.58359 8.58862 13.3916 8.58862 19.3157C8.58862 25.2398 13.3966 30.0478 19.3207 30.0478C25.2448 30.0478 30.0528 25.2398 30.0528 19.3157C30.0528 16.6434 29.0655 14.2072 27.4557 12.3184ZM21.1988 19.1225C21.8857 19.3694 22.8087 19.863 22.8087 21.4407C22.8087 22.7822 21.7462 23.8876 20.4476 23.8876H20.1256V24.1559C20.1256 24.5959 19.7607 24.9608 19.3207 24.9608C18.8807 24.9608 18.5158 24.5959 18.5158 24.1559V23.8876H18.43C17.0026 23.8876 15.8328 22.6856 15.8328 21.2045C15.8328 20.7538 16.1977 20.3889 16.6377 20.3889C17.0777 20.3889 17.4426 20.7538 17.4426 21.1938C17.4426 21.7841 17.8826 22.267 18.43 22.267H18.5158V19.8845L17.4426 19.5089C16.7558 19.262 15.8328 18.7684 15.8328 17.1907C15.8328 15.8492 16.8953 14.7438 18.1939 14.7438H18.5158V14.4863C18.5158 14.0462 18.8807 13.6813 19.3207 13.6813C19.7607 13.6813 20.1256 14.0462 20.1256 14.4863V14.7546H20.2115C21.6389 14.7546 22.8087 15.9565 22.8087 17.4376C22.8087 17.8776 22.4438 18.2425 22.0038 18.2425C21.5637 18.2425 21.1988 17.8776 21.1988 17.4376C21.1988 16.8473 20.7588 16.3644 20.2115 16.3644H20.1256V18.7469L21.1988 19.1225ZM30.7933 8.27236C30.7085 8.07473 30.551 7.91721 30.3533 7.83235C30.2568 7.79806 30.1553 7.77993 30.0528 7.77869H25.76C25.32 7.77869 24.9551 8.14358 24.9551 8.58359C24.9551 9.02361 25.32 9.3885 25.76 9.3885H28.1103L26.3181 11.1808C26.7259 11.5349 27.1015 11.9105 27.4557 12.3184L29.2479 10.5261V12.8764C29.2479 13.3165 29.6128 13.6813 30.0528 13.6813C30.4928 13.6813 30.8577 13.3165 30.8577 12.8764V8.58359C30.8577 8.47627 30.8363 8.37968 30.7933 8.27236Z" fill="#FF0000"/>
</svg>
