<svg width="36" height="36" viewBox="0 0 36 36" fill="none" xmlns="http://www.w3.org/2000/svg">
<rect x="36" y="36" width="36" height="36" rx="18" transform="rotate(180 36 36)" fill="#C100C8" fill-opacity="0.15"/>
<path fill-rule="evenodd" clip-rule="evenodd" d="M22.151 10.4114L23.981 12.2414C26.67 14.9314 28.014 16.2754 28.014 17.9454C28.014 19.6164 26.67 20.9604 23.981 23.6494C21.291 26.3393 19.947 27.6834 18.276 27.6834C16.606 27.6834 15.261 26.3393 12.572 23.6503L10.742 21.8203C9.19697 20.2743 8.42397 19.5024 8.13697 18.4994C7.84897 17.4964 8.09497 16.4314 8.58697 14.3024L8.86997 13.0744C9.28297 11.2824 9.48997 10.3864 10.103 9.77235C10.716 9.15835 11.613 8.95235 13.405 8.53935L14.633 8.25535C16.763 7.76435 17.827 7.51835 18.83 7.80535C19.833 8.09335 20.606 8.86635 22.151 10.4114ZM17.16 20.0114C16.487 19.3394 16.492 18.3734 16.895 17.6084C16.7952 17.4642 16.7491 17.2897 16.7645 17.1152C16.78 16.9406 16.8562 16.7769 16.9798 16.6526C17.1033 16.5283 17.2665 16.4513 17.441 16.4348C17.6155 16.4183 17.7903 16.4634 17.935 16.5624C18.275 16.3823 18.648 16.2864 19.02 16.2904C19.2189 16.2922 19.4089 16.373 19.5482 16.515C19.6876 16.6569 19.7648 16.8484 19.763 17.0474C19.7611 17.2463 19.6803 17.4363 19.5383 17.5756C19.3964 17.715 19.2049 17.7922 19.006 17.7904C18.7744 17.7989 18.5556 17.8984 18.397 18.0674C18.01 18.4544 18.111 18.8424 18.22 18.9514C18.33 19.0604 18.717 19.1614 19.104 18.7744C19.888 17.9903 21.242 17.7304 22.109 18.5974C22.782 19.2704 22.777 20.2364 22.374 21.0014C22.4731 21.1455 22.5187 21.3197 22.503 21.494C22.4872 21.6682 22.411 21.8314 22.2876 21.9554C22.1642 22.0794 22.0014 22.1564 21.8272 22.173C21.6531 22.1896 21.4786 22.1448 21.334 22.0464C20.8852 22.2926 20.3647 22.3746 19.862 22.2783C19.667 22.2383 19.496 22.1225 19.3865 21.9563C19.2769 21.7901 19.2379 21.5873 19.278 21.3924C19.318 21.1974 19.4339 21.0264 19.6 20.9169C19.7662 20.8073 19.969 20.7683 20.164 20.8084C20.341 20.8454 20.627 20.7874 20.872 20.5424C21.259 20.1544 21.158 19.7674 21.049 19.6584C20.939 19.5494 20.552 19.4484 20.165 19.8354C19.381 20.6194 18.027 20.8794 17.16 20.0114ZM16.034 15.9764C16.2197 15.7906 16.3669 15.5701 16.4674 15.3274C16.5679 15.0847 16.6196 14.8246 16.6195 14.562C16.6195 14.2993 16.5677 14.0393 16.4671 13.7966C16.3666 13.554 16.2192 13.3335 16.0335 13.1479C15.8477 12.9622 15.6272 12.8149 15.3845 12.7144C15.1418 12.6139 14.8818 12.5623 14.6191 12.5623C14.3565 12.5623 14.0964 12.6141 13.8538 12.7147C13.6111 12.8152 13.3907 12.9626 13.205 13.1484C12.8299 13.5235 12.6193 14.0323 12.6194 14.5627C12.6195 15.0932 12.8303 15.6018 13.2055 15.9769C13.5806 16.3519 14.0894 16.5625 14.6198 16.5624C15.1503 16.5623 15.6589 16.3515 16.034 15.9764Z" fill="#C100C8"/>
</svg>
