<svg width="240" height="210" viewBox="0 0 240 210" fill="none" xmlns="http://www.w3.org/2000/svg">
<circle cx="126.317" cy="119.098" r="90.2256" fill="#E6EEFA"/>
<ellipse opacity="0.4" cx="126.316" cy="120.003" rx="70.3759" ry="67.6692" fill="#C2D5F3"/>
<path d="M144.361 87.8348C139.053 84.7641 132.89 83.0066 126.316 83.0066C106.384 83.0066 90.2261 99.1647 90.2261 119.097C90.2261 139.029 106.384 155.187 126.316 155.187C146.248 155.187 162.407 139.029 162.407 119.097C162.407 116.625 162.158 114.211 161.685 111.879" stroke="#2E71D5" stroke-width="4" stroke-linecap="round"/>
<path d="M111.88 120.901C111.88 120.901 117.294 120.901 124.512 133.533C124.512 133.533 144.574 100.45 162.406 93.8337" stroke="#3D4149" stroke-width="4.33083" stroke-linecap="round" stroke-linejoin="round"/>
<circle cx="225.564" cy="180.453" r="14.4361" fill="#E6EEFA"/>
<circle cx="10.8271" cy="110.076" r="10.8271" fill="#E6EEFA"/>
<circle cx="194.888" cy="7.21804" r="7.21804" fill="#E6EEFA"/>
</svg>
