<svg width="66" height="66" viewBox="0 0 66 66" fill="none" xmlns="http://www.w3.org/2000/svg">
<path fill-rule="evenodd" clip-rule="evenodd" d="M33.0013 35.9338C35.5297 35.9338 37.9546 34.9294 39.7424 33.1416C41.5303 31.3537 42.5347 28.9289 42.5347 26.4005C42.5347 23.8721 41.5303 21.4473 39.7424 19.6594C37.9546 17.8716 35.5297 16.8672 33.0013 16.8672C30.4729 16.8672 28.0481 17.8716 26.2603 19.6594C24.4724 21.4473 23.468 23.8721 23.468 26.4005C23.468 28.9289 24.4724 31.3537 26.2603 33.1416C28.0481 34.9294 30.4729 35.9338 33.0013 35.9338ZM50.7216 43.408L51.3728 43.7189C49.4994 46.9293 46.8174 49.5926 43.5939 51.4433C40.3705 53.2941 36.7183 54.2677 33.0013 54.2672C29.2844 54.2677 25.6321 53.2941 22.4087 51.4433C19.1853 49.5926 16.5032 46.9293 14.6299 43.7189L15.2811 43.408C20.8171 40.7794 26.87 39.4195 32.9984 39.4274C39.3344 39.4274 45.3477 40.856 50.7216 43.408Z" fill="#2859C5"/>
<path fill-rule="evenodd" clip-rule="evenodd" d="M33 4.76367e-05C14.7752 4.76367e-05 0 14.7752 0 33C0 51.2248 14.7752 66 33 66C51.2248 66 66 51.2248 66 33C65.996 30.7414 65.776 28.5423 65.34 26.403L58.1533 27.8638C59.2132 33.0532 58.6417 38.4434 56.5172 43.2952C54.3927 48.147 50.8192 52.2227 46.2869 54.9634C41.7545 57.7041 36.4853 58.9755 31.2018 58.6032C25.9184 58.2309 20.8795 56.2332 16.7762 52.8841C12.673 49.535 9.70629 44.9984 8.2831 39.8967C6.8599 34.7949 7.04989 29.3778 8.82701 24.3883C10.6041 19.3988 13.8813 15.0812 18.2091 12.0278C22.5369 8.97435 27.7034 7.33458 33 7.33337C38.7348 7.32135 44.3065 9.24127 48.8165 12.7835L44.7333 16.8667L47.6666 19.8H60.8666V6.60004L57.9333 3.66671L54.032 7.56804C48.1213 2.66472 40.6797 -0.0130246 33 4.76367e-05Z" fill="#8FBFFA"/>
</svg>
