<svg width="39" height="39" viewBox="0 0 39 39" fill="none" xmlns="http://www.w3.org/2000/svg">
<rect x="0.000976562" width="38.6356" height="38.6356" rx="19.3178" fill="#FFAE00" fill-opacity="0.15"/>
<path fill-rule="evenodd" clip-rule="evenodd" d="M14.9502 10.7089C15.2722 10.7089 15.5811 10.8368 15.8088 11.0645C16.0365 11.2922 16.1645 11.6011 16.1645 11.9231V13.1374H22.2359V11.9231C22.2359 11.6011 22.3638 11.2922 22.5916 11.0645C22.8193 10.8368 23.1281 10.7089 23.4502 10.7089C23.7722 10.7089 24.0811 10.8368 24.3088 11.0645C24.5365 11.2922 24.6645 11.6011 24.6645 11.9231V13.1374H25.8788C26.3618 13.1374 26.8251 13.3293 27.1667 13.6709C27.5083 14.0125 27.7002 14.4758 27.7002 14.9589V25.8874C27.7002 26.3705 27.5083 26.8338 27.1667 27.1754C26.8251 27.517 26.3618 27.7089 25.8788 27.7089H12.5216C12.0386 27.7089 11.5753 27.517 11.2337 27.1754C10.8921 26.8338 10.7002 26.3705 10.7002 25.8874V14.9589C10.7002 14.4758 10.8921 14.0125 11.2337 13.6709C11.5753 13.3293 12.0386 13.1374 12.5216 13.1374H13.7359V11.9231C13.7359 11.6011 13.8638 11.2922 14.0916 11.0645C14.3193 10.8368 14.6281 10.7089 14.9502 10.7089ZM14.6903 20.6429C14.6903 20.4014 14.7863 20.1698 14.9571 19.999C15.1279 19.8282 15.3595 19.7322 15.6011 19.7322H19.7223V18.3249C19.7225 18.175 19.7671 18.0285 19.8505 17.904C19.9338 17.7794 20.0521 17.6823 20.1906 17.6249C20.329 17.5675 20.4814 17.5523 20.6284 17.5814C20.7754 17.6105 20.9106 17.6824 21.0168 17.7881L23.3361 20.1074C23.4781 20.2497 23.5578 20.4425 23.5578 20.6435C23.5578 20.8446 23.4781 21.0374 23.3361 21.1796L21.0168 23.4989C20.9106 23.6047 20.7754 23.6766 20.6284 23.7057C20.4814 23.7347 20.329 23.7196 20.1906 23.6622C20.0521 23.6048 19.9338 23.5077 19.8505 23.3831C19.7671 23.2585 19.7225 23.1121 19.7223 22.9622V21.5524H15.6011C15.3595 21.5524 15.1279 21.4565 14.9571 21.2857C14.7863 21.1149 14.6903 20.8845 14.6903 20.6429Z" fill="#FFAE00"/>
</svg>
