<svg width="105" height="105" viewBox="0 0 105 105" fill="none" xmlns="http://www.w3.org/2000/svg">
<rect x="4.56012" y="4.56012" width="95.52" height="95.52" rx="47.76" fill="#FF0000"/>
<rect x="4.56012" y="4.56012" width="95.52" height="95.52" rx="47.76" stroke="#F4E9EE" stroke-width="9.12"/>
<circle cx="52.3203" cy="52.3203" r="28" fill="white"/>
<path d="M42.7371 56.3987C40.9904 57.4224 36.4109 59.5129 39.2001 62.1287C40.5627 63.4065 42.0802 64.3204 43.9881 64.3204H54.8748C56.7827 64.3204 58.3002 63.4065 59.6627 62.1287C62.452 59.5129 57.8724 57.4224 56.1258 56.3987C52.03 53.998 46.8329 53.998 42.7371 56.3987Z" stroke="#FF0000" stroke-width="2.5" stroke-linecap="round" stroke-linejoin="round"/>
<path d="M54.9871 44.8759C54.9871 47.9441 52.4998 50.4314 49.4315 50.4314C46.3633 50.4314 43.876 47.9441 43.876 44.8759C43.876 41.8076 46.3633 39.3203 49.4315 39.3203C52.4998 39.3203 54.9871 41.8076 54.9871 44.8759Z" stroke="#FF0000" stroke-width="2.5"/>
<path d="M60.1703 46.6364L65.0785 41.7237M66.0978 44.1812C66.0978 46.0989 64.5432 47.6534 62.6255 47.6534C60.7079 47.6534 59.1533 46.0989 59.1533 44.1812C59.1533 42.2636 60.7079 40.709 62.6255 40.709C64.5432 40.709 66.0978 42.2636 66.0978 44.1812Z" stroke="#FF0000" stroke-width="2.5" stroke-linejoin="round"/>
</svg>
