<svg width="105" height="105" viewBox="0 0 105 105" fill="none" xmlns="http://www.w3.org/2000/svg">
<rect x="4.56012" y="4.56012" width="95.52" height="95.52" rx="47.76" fill="#FF9249"/>
<rect x="4.56012" y="4.56012" width="95.52" height="95.52" rx="47.76" stroke="#FFDFCA" stroke-width="9.12"/>
<circle cx="52.3203" cy="52.3203" r="28" fill="white"/>
<path d="M52.9453 64.8203H45.5589C43.6272 64.8203 42.0907 63.8803 40.7111 62.566C37.887 59.8755 42.5238 57.7253 44.2923 56.6723C47.2913 54.8866 50.8734 54.3922 54.1953 55.1893" stroke="#FF9249" stroke-width="2.5" stroke-linecap="round" stroke-linejoin="round"/>
<path d="M57.9453 45.4453C57.9453 48.5519 55.4269 51.0703 52.3203 51.0703C49.2137 51.0703 46.6953 48.5519 46.6953 45.4453C46.6953 42.3387 49.2137 39.8203 52.3203 39.8203C55.4269 39.8203 57.9453 42.3387 57.9453 45.4453Z" stroke="#FF9249" stroke-width="2.5"/>
<path d="M57.4207 64.6419L56.9136 65.7844L56.9136 65.7844L57.4207 64.6419ZM56.2368 63.3735L55.0709 63.8242L55.0709 63.8242L56.2368 63.3735ZM64.6538 63.3735L65.8197 63.8242L65.8197 63.8242L64.6538 63.3735ZM63.4699 64.6419L63.977 65.7844H63.977L63.4699 64.6419ZM63.4699 57.9675L63.977 56.8249H63.977L63.4699 57.9675ZM64.6538 59.2359L65.8197 58.7852L65.8197 58.7852L64.6538 59.2359ZM57.4207 57.9675L56.9136 56.8249H56.9136L57.4207 57.9675ZM56.2368 59.2359L55.0709 58.7852V58.7852L56.2368 59.2359ZM57.0078 57.7891C57.0078 58.4794 57.5675 59.0391 58.2578 59.0391C58.9482 59.0391 59.5078 58.4794 59.5078 57.7891H58.2578H57.0078ZM61.3828 57.7891C61.3828 58.4794 61.9425 59.0391 62.6328 59.0391C63.3232 59.0391 63.8828 58.4794 63.8828 57.7891H62.6328H61.3828ZM59.3516 57.7891V59.0391H61.5391V57.7891V56.5391H59.3516V57.7891ZM61.5391 64.8203V63.5703H59.3516V64.8203V66.0703H61.5391V64.8203ZM59.3516 64.8203V63.5703C58.8236 63.5703 58.4947 63.5695 58.2458 63.5513C58.0099 63.5341 57.9429 63.5061 57.9278 63.4994L57.4207 64.6419L56.9136 65.7844C57.3005 65.9561 57.6893 66.0173 58.0635 66.0447C58.4247 66.0711 58.8603 66.0703 59.3516 66.0703V64.8203ZM56.0703 61.3047H54.8203C54.8203 61.8347 54.8197 62.2907 54.8437 62.6665C54.8682 63.052 54.9222 63.4395 55.0709 63.8242L56.2368 63.3735L57.4027 62.9227C57.385 62.8768 57.3557 62.7759 57.3386 62.5076C57.3209 62.2297 57.3203 61.8667 57.3203 61.3047H56.0703ZM57.4207 64.6419L57.9278 63.4994C57.7107 63.403 57.512 63.2054 57.4027 62.9227L56.2368 63.3735L55.0709 63.8242C55.4057 64.6901 56.0587 65.405 56.9136 65.7844L57.4207 64.6419ZM64.8203 61.3047H63.5703C63.5703 61.8667 63.5697 62.2297 63.552 62.5076C63.5349 62.7759 63.5057 62.8768 63.4879 62.9227L64.6538 63.3735L65.8197 63.8242C65.9685 63.4395 66.0224 63.052 66.047 62.6665C66.0709 62.2907 66.0703 61.8347 66.0703 61.3047H64.8203ZM61.5391 64.8203V66.0703C62.0304 66.0703 62.4659 66.0711 62.8271 66.0447C63.2013 66.0173 63.5901 65.9561 63.977 65.7844L63.4699 64.6419L62.9629 63.4994C62.9478 63.5061 62.8807 63.5341 62.6448 63.5513C62.3959 63.5695 62.067 63.5703 61.5391 63.5703V64.8203ZM64.6538 63.3735L63.4879 62.9227C63.3786 63.2054 63.1799 63.403 62.9629 63.4994L63.4699 64.6419L63.977 65.7844C64.8319 65.405 65.485 64.6901 65.8197 63.8242L64.6538 63.3735ZM61.5391 57.7891V59.0391C62.067 59.0391 62.3959 59.0398 62.6448 59.058C62.8807 59.0753 62.9478 59.1033 62.9629 59.11L63.4699 57.9675L63.977 56.8249C63.5901 56.6532 63.2013 56.592 62.8271 56.5647C62.4659 56.5383 62.0304 56.5391 61.5391 56.5391V57.7891ZM64.8203 61.3047H66.0703C66.0703 60.7746 66.0709 60.3186 66.047 59.9429C66.0224 59.5574 65.9685 59.1699 65.8197 58.7852L64.6538 59.2359L63.4879 59.6866C63.5057 59.7326 63.5349 59.8335 63.552 60.1017C63.5697 60.3796 63.5703 60.7427 63.5703 61.3047H64.8203ZM63.4699 57.9675L62.9629 59.11C63.1799 59.2063 63.3786 59.4039 63.4879 59.6866L64.6538 59.2359L65.8197 58.7852C65.485 57.9193 64.8319 57.2044 63.977 56.8249L63.4699 57.9675ZM59.3516 57.7891V56.5391C58.8603 56.5391 58.4247 56.5383 58.0635 56.5647C57.6893 56.592 57.3005 56.6532 56.9136 56.8249L57.4207 57.9675L57.9278 59.11C57.9429 59.1033 58.0099 59.0753 58.2458 59.058C58.4947 59.0398 58.8236 59.0391 59.3516 59.0391V57.7891ZM56.0703 61.3047H57.3203C57.3203 60.7427 57.3209 60.3796 57.3386 60.1017C57.3557 59.8335 57.385 59.7326 57.4027 59.6866L56.2368 59.2359L55.0709 58.7852C54.9222 59.1699 54.8682 59.5574 54.8437 59.9429C54.8197 60.3186 54.8203 60.7746 54.8203 61.3047H56.0703ZM57.4207 57.9675L56.9136 56.8249C56.0587 57.2044 55.4057 57.9193 55.0709 58.7852L56.2368 59.2359L57.4027 59.6866C57.512 59.4039 57.7107 59.2063 57.9278 59.11L57.4207 57.9675ZM58.2578 57.7891H59.5078V55.6797H58.2578H57.0078V57.7891H58.2578ZM62.6328 55.6797H61.3828V57.7891H62.6328H63.8828V55.6797H62.6328ZM60.4453 53.5703V54.8203C61.0063 54.8203 61.3828 55.2475 61.3828 55.6797H62.6328H63.8828C63.8828 53.7819 62.3006 52.3203 60.4453 52.3203V53.5703ZM58.2578 55.6797H59.5078C59.5078 55.2475 59.8843 54.8203 60.4453 54.8203V53.5703V52.3203C58.5901 52.3203 57.0078 53.7819 57.0078 55.6797H58.2578Z" fill="#FF9249"/>
</svg>
