<svg width="37" height="37" viewBox="0 0 37 37" fill="none" xmlns="http://www.w3.org/2000/svg">
<rect x="0.0443115" y="0.0454102" width="36" height="36" rx="18" fill="#FFAE00" fill-opacity="0.15"/>
<path d="M18.186 14.1252C18.186 14.9422 17.8614 15.7258 17.2837 16.3036C16.7059 16.8813 15.9223 17.2059 15.1053 17.2059C14.2882 17.2059 13.5046 16.8813 12.9268 16.3036C12.3491 15.7258 12.0245 14.9422 12.0245 14.1252C12.0245 13.3081 12.3491 12.5245 12.9268 11.9468C13.5046 11.369 14.2882 11.0444 15.1053 11.0444C15.9223 11.0444 16.7059 11.369 17.2837 11.9468C17.8614 12.5245 18.186 13.3081 18.186 14.1252ZM21.1435 23.3748C21.2791 24.0427 20.7147 24.5997 20.0344 24.5997H10.1761C9.49461 24.5997 8.93145 24.0427 9.06454 23.3748C9.34803 21.982 10.1042 20.73 11.2049 19.8307C12.3056 18.9315 13.6833 18.4402 15.1046 18.4402C16.526 18.4402 17.9037 18.9315 19.0044 19.8307C20.1051 20.73 20.8613 21.982 21.1447 23.3748M24.9661 23.3674H23.0067C22.9961 23.2475 22.9797 23.1283 22.9574 23.01C22.7215 21.8475 22.2303 20.7519 21.5194 19.8024C22.4251 19.5525 23.3921 19.6568 24.2236 20.0942C25.0552 20.5317 25.6891 21.2693 25.9963 22.1573C26.2181 22.8005 25.6476 23.3674 24.9661 23.3674ZM22.499 18.4382C23.1527 18.4382 23.7796 18.1785 24.2418 17.7163C24.704 17.2541 24.9636 16.6273 24.9636 15.9736C24.9636 15.32 24.704 14.6931 24.2418 14.2309C23.7796 13.7687 23.1527 13.509 22.499 13.509C21.8454 13.509 21.2185 13.7687 20.7563 14.2309C20.2941 14.6931 20.0344 15.32 20.0344 15.9736C20.0344 16.6273 20.2941 17.2541 20.7563 17.7163C21.2185 18.1785 21.8454 18.4382 22.499 18.4382Z" fill="#FFAE00"/>
</svg>
